<svg id="Layer_1" data-name="Layer 1" xmlns="http://www.w3.org/2000/svg" viewBox="0 0 200 206.04"><defs><style>.cls-1{fill:#eb285f;}</style></defs><title>jc_logo_ eb285f</title><path class="cls-1" d="M100,11A95,95,0,1,1,5,106a95.11,95.11,0,0,1,95-95m0-5A100,100,0,1,0,200,106,100,100,0,0,0,100,6Z" transform="translate(0 0.04)"/><path class="cls-1" d="M81.14,15.79q0,7.38-4.77,11.61a17.08,17.08,0,0,1-22.5,0Q49.1,23.18,49.1,15.79T53.87,4.19a17.08,17.08,0,0,1,22.5,0Q81.14,8.42,81.14,15.79Z" transform="translate(0 0.04)"/><path class="cls-1" d="M43,184.13C39,182,21,161,21,161s10,.46,19.46.46q6.3,0,8.82-3.78t2.52-11V56.15H78.62v91.26q0,18.72-9.18,27.72T43,184.13Z" transform="translate(0 0.04)"/><path class="cls-1" d="M180,54l13,23s-24,0-32.74-.33q-11.88,0-17.73,7.38t-5.85,19.44q0,12.78,5.49,19.8t19.17,7c3.24,0,32.66-.31,32.66-.31l-9,23s-20.72.35-26.36.35q-13,0-22.32-3.87A42,42,0,0,1,120.93,139a41,41,0,0,1-8.82-15.75,66.82,66.82,0,0,1-2.79-19.71,55.77,55.77,0,0,1,3.33-19.35,45.29,45.29,0,0,1,24.93-26.55,50.51,50.51,0,0,1,20.52-4" transform="translate(0 0.04)"/></svg>